<?xml version="1.0" encoding="UTF-8" standalone="no"?>
<!-- Created with Inkscape (http://www.inkscape.org/) -->

<svg
   xmlns:dc="http://purl.org/dc/elements/1.1/"
   xmlns:cc="http://creativecommons.org/ns#"
   xmlns:rdf="http://www.w3.org/1999/02/22-rdf-syntax-ns#"
   xmlns:svg="http://www.w3.org/2000/svg"
   xmlns="http://www.w3.org/2000/svg"
   xmlns:xlink="http://www.w3.org/1999/xlink"
   version="1.1"
   width="516.30341"
   height="777.28528"
   id="svg4312"
   style="display:inline">
  <title
     id="title5291">Stycil Tux</title>
  <defs
     id="defs4314">
    <linearGradient
       id="linearGradient3910-6-0-8-7-7-8">
      <stop
         id="stop3912-5-9-3-8-7-4"
         style="stop-color:#000000;stop-opacity:1"
         offset="0" />
      <stop
         id="stop3914-0-1-3-0-6-9"
         style="stop-color:#4c4c4c;stop-opacity:1"
         offset="1" />
    </linearGradient>
    <linearGradient
       x1="140.00095"
       y1="230.00362"
       x2="140.00095"
       y2="497.71365"
       id="linearGradient4970"
       xlink:href="#linearGradient3910-6-0-8-7-7-8"
       gradientUnits="userSpaceOnUse"
       gradientTransform="matrix(2.8137063,0,0,2.8137063,-142.7958,-633.69995)" />
    <linearGradient
       id="linearGradient3910-6-0-8-7-81">
      <stop
         id="stop3912-5-9-3-8-5"
         style="stop-color:#ffffff;stop-opacity:1"
         offset="0" />
      <stop
         id="stop3914-0-1-3-0-64"
         style="stop-color:#a6a6a6;stop-opacity:1"
         offset="1" />
    </linearGradient>
    <linearGradient
       x1="140.00095"
       y1="230.00362"
       x2="140.00095"
       y2="497.71365"
       id="linearGradient5004"
       xlink:href="#linearGradient3910-6-0-8-7-81"
       gradientUnits="userSpaceOnUse"
       gradientTransform="matrix(2.8137063,0,0,2.8137063,-131.42674,-633.69995)" />
    <filter
       color-interpolation-filters="sRGB"
       id="filter4731-8">
      <feGaussianBlur
         id="feGaussianBlur4733-7"
         stdDeviation="16.169858" />
    </filter>
  </defs>
  <metadata
     id="metadata4317">
    <rdf:RDF>
      <cc:Work
         rdf:about="">
        <dc:format>image/svg+xml</dc:format>
        <dc:type
           rdf:resource="http://purl.org/dc/dcmitype/StillImage" />
        <dc:title>Stycil Tux</dc:title>
        <dc:creator>
          <cc:Agent>
            <dc:title>Cheeseness (Josh Bush)</dc:title>
          </cc:Agent>
        </dc:creator>
        <dc:subject>
          <rdf:Bag>
            <rdf:li>tux</rdf:li>
            <rdf:li>linux</rdf:li>
            <rdf:li>icon</rdf:li>
            <rdf:li>penguin</rdf:li>
          </rdf:Bag>
        </dc:subject>
        <dc:description>A stylised stencil (a &quot;stycil&quot; - isn't that catchy) inspired by Larry Ewing's Tux illustration.
http://en.wikipedia.org/wiki/Tux

You're under no obligation to do so, but if you do something with this, drop me a line - I'd love to hear about it.
cheese@twolofbees.com</dc:description>
        <dc:date>2012-01-02</dc:date>
        <cc:license
           rdf:resource="http://creativecommons.org/publicdomain/zero/1.0/" />
        <dc:source>http://twolofbees.com/uploads/2012/stycil_tux.svg</dc:source>
        <dc:relation>http://twolofbees.com/artwork.php?iid=870</dc:relation>
      </cc:Work>
    </rdf:RDF>
  </metadata>
  <g
     id="layer2"
     style="display:inline">
    <path
       d="M 258.10782,-1.6796874e-6 C 182.1248,-1.6796874e-6 137.51799,46.352999 129.11683,108.85526 120.71595,171.35752 134.242,182.81072 113.20194,246.81491 92.16189,310.818 -2.16761,420.53538 0.03805,521.76663 c 0.68683,31.51688 4.31623,58.80618 10.63947,82.65262 7.75233,-12.84485 19.23844,-21.89739 27.60949,-25.76314 6.53512,-3.01685 9.69379,-4.4676 11.16704,-5.01177 0.21384,-1.61929 1.0422,-5.30581 2.54978,-12.57389 2.07089,-9.98191 10.00779,-25.6112 23.56479,-35.87476 -0.13787,-3.10943 -0.28756,-6.18678 -0.35171,-9.40819 -1.56583,-78.51788 79.58568,-163.58213 94.52309,-213.22632 14.93684,-49.6425 8.43914,-54.75472 10.90311,-67.08917 2.46368,-12.33444 11.97626,-26.70204 25.67507,-38.16086 1.30499,-1.09228 2.5751,-1.57061 3.86884,-1.58271 12.48892,-0.11817 24.98684,45.3482 49.15179,45.37099 24.16496,0.0281 36.73575,-55.42492 50.64672,-43.78828 13.69881,11.4591 23.21139,25.82642 25.67507,38.16086 2.46396,12.33445 -4.0343,17.44667 10.90311,67.08917 14.9374,49.64363 96.00084,134.70816 94.43502,213.22632 -0.0647,3.19131 -0.21666,6.23855 -0.35172,9.3204 13.61721,10.26187 21.57719,25.95644 23.65258,35.96255 1.50758,7.26808 2.33622,10.9546 2.55006,12.57389 1.46876,0.54332 4.64065,2.0782 11.16676,5.09984 8.37387,3.87729 19.79104,12.91294 27.5217,25.76314 6.34013,-23.8712 10.03959,-51.17822 10.72726,-82.74069 C 518.47103,420.53538 424.05374,310.81772 403.01369,246.81491 381.97364,182.81072 395.58748,171.35752 387.18659,108.85526 378.78571,46.352999 334.09083,-1.6796874e-6 258.10782,-1.6796874e-6 z M 108.80553,541.81429 c -3.26249,0.18851 -6.8677,1.06639 -10.90311,2.72563 -25.82645,10.62174 -14.48102,32.99859 -25.76314,47.12958 -11.28156,14.13184 -33.93443,7.32492 -41.06239,36.22647 -7.12768,28.90211 102.43804,170.80435 161.34833,146.57665 58.91057,-24.2277 37.00558,-202.18561 11.60654,-217.71052 -25.39848,-15.52462 -36.64346,5.27092 -54.60335,3.16542 -15.15349,-1.77657 -23.00486,-19.1318 -40.62288,-18.11323 z m 296.75794,0 c -16.29614,0.28137 -24.18409,16.4025 -38.77625,18.11323 -17.95988,2.1055 -29.20486,-18.69004 -54.60334,-3.16542 -25.39905,15.52491 -47.30403,193.48254 11.60653,217.71052 58.91029,24.2277 168.47601,-117.67454 161.34833,-146.57665 -7.12796,-28.90155 -29.69304,-22.09463 -40.9746,-36.22647 -11.28211,-14.13099 0.0647,-36.50784 -25.76285,-47.12958 -4.84267,-1.99098 -9.07702,-2.79035 -12.83782,-2.72563 z m -150.62107,174.01 c -1.28727,8.31675 -3.01545,16.47819 -5.2757,24.35629 -3.68399,12.84006 -9.06098,25.70771 -17.0581,36.66625 8.28806,0.51378 16.78292,0.58131 25.49922,0.17445 8.7163,0.40602 17.20834,0.33821 25.49921,-0.17445 -7.99712,-10.95854 -13.37411,-23.82619 -17.05809,-36.66625 -2.26025,-7.8781 -3.98843,-16.03954 -5.2757,-24.35629 -1.05486,0.0281 -2.10072,0.0872 -3.16542,0.0872 -1.06471,0 -2.11056,-0.0675 -3.16542,-0.0872 z"
       id="path4372-4"
       style="color:#000000;fill:#000000;fill-opacity:1;fill-rule:nonzero;stroke:none;stroke-width:15;marker:none;visibility:visible;display:inline;overflow:visible;enable-background:accumulate" />
  </g>
</svg>
